<?xml version="1.0" encoding="UTF-8" standalone="no"?>
<!DOCTYPE svg PUBLIC "-//W3C//DTD SVG 1.1//EN"
 "http://www.w3.org/Graphics/SVG/1.1/DTD/svg11.dtd">
<!-- Generated by graphviz version 13.1.0 (20250701.0955)
 -->
<!-- Title: onnxcli Pages: 1 -->
<svg width="750pt" height="1075pt"
 viewBox="0.00 0.00 750.00 1075.00" xmlns="http://www.w3.org/2000/svg" xmlns:xlink="http://www.w3.org/1999/xlink">
<g id="graph0" class="graph" transform="scale(1 1) rotate(0) translate(4 1070.9)">
<title>onnxcli</title>
<polygon fill="white" stroke="none" points="-4,4 -4,-1070.9 746.25,-1070.9 746.25,4 -4,4"/>
<!-- node_/Reshape -->
<g id="node1" class="node">
<title>node_/Reshape</title>
<ellipse fill="none" stroke="black" cx="604" cy="-960.91" rx="55.33" ry="28.99"/>
<text xml:space="preserve" text-anchor="middle" x="604" y="-964.11" font-family="Times,serif" font-size="14.00">/Reshape</text>
<text xml:space="preserve" text-anchor="middle" x="604" y="-947.61" font-family="Times,serif" font-size="14.00">&lt;Reshape&gt;</text>
</g>
<!-- tensor_/Reshape_output_0 -->
<g id="node4" class="node">
<title>tensor_/Reshape_output_0</title>
<polygon fill="none" stroke="black" points="693.38,-895.91 514.62,-895.91 514.62,-854.91 693.38,-854.91 693.38,-895.91"/>
<text xml:space="preserve" text-anchor="middle" x="604" y="-878.61" font-family="Times,serif" font-size="14.00">/Reshape_output_0</text>
<text xml:space="preserve" text-anchor="middle" x="604" y="-862.11" font-family="Times,serif" font-size="14.00">FLOAT, [1, 3, 24, 16, 24, 16]</text>
</g>
<!-- node_/Reshape&#45;&gt;tensor_/Reshape_output_0 -->
<g id="edge3" class="edge">
<title>node_/Reshape&#45;&gt;tensor_/Reshape_output_0</title>
<path fill="none" stroke="black" d="M604,-931.64C604,-923.91 604,-915.49 604,-907.61"/>
<polygon fill="black" stroke="black" points="607.5,-907.73 604,-897.73 600.5,-907.73 607.5,-907.73"/>
</g>
<!-- tensor_input -->
<g id="node2" class="node">
<title>tensor_input</title>
<polygon fill="none" stroke="black" points="602.12,-1066.9 451.88,-1066.9 451.88,-1025.9 602.12,-1025.9 602.12,-1066.9"/>
<text xml:space="preserve" text-anchor="middle" x="527" y="-1049.6" font-family="Times,serif" font-size="14.00">input</text>
<text xml:space="preserve" text-anchor="middle" x="527" y="-1033.1" font-family="Times,serif" font-size="14.00">FLOAT, [1, 3, 384, 384]</text>
</g>
<!-- tensor_input&#45;&gt;node_/Reshape -->
<g id="edge1" class="edge">
<title>tensor_input&#45;&gt;node_/Reshape</title>
<path fill="none" stroke="black" d="M545.25,-1025.61C553.45,-1016.72 563.36,-1005.97 572.69,-995.86"/>
<polygon fill="black" stroke="black" points="575.11,-998.4 579.31,-988.67 569.96,-993.65 575.11,-998.4"/>
</g>
<!-- tensor_/Constant_output_0 -->
<g id="node3" class="node">
<title>tensor_/Constant_output_0</title>
<path fill="none" stroke="black" d="M730.25,-1066.9C730.25,-1066.9 631.75,-1066.9 631.75,-1066.9 625.75,-1066.9 619.75,-1060.9 619.75,-1054.9 619.75,-1054.9 619.75,-1037.9 619.75,-1037.9 619.75,-1031.9 625.75,-1025.9 631.75,-1025.9 631.75,-1025.9 730.25,-1025.9 730.25,-1025.9 736.25,-1025.9 742.25,-1031.9 742.25,-1037.9 742.25,-1037.9 742.25,-1054.9 742.25,-1054.9 742.25,-1060.9 736.25,-1066.9 730.25,-1066.9"/>
<text xml:space="preserve" text-anchor="middle" x="681" y="-1049.6" font-family="Times,serif" font-size="14.00">/Constant_output_0</text>
<text xml:space="preserve" text-anchor="middle" x="681" y="-1033.1" font-family="Times,serif" font-size="14.00">INT64, [6]</text>
</g>
<!-- tensor_/Constant_output_0&#45;&gt;node_/Reshape -->
<g id="edge2" class="edge">
<title>tensor_/Constant_output_0&#45;&gt;node_/Reshape</title>
<path fill="none" stroke="black" d="M662.75,-1025.61C654.55,-1016.72 644.64,-1005.97 635.31,-995.86"/>
<polygon fill="black" stroke="black" points="638.04,-993.65 628.69,-988.67 632.89,-998.4 638.04,-993.65"/>
</g>
<!-- node_/Transpose -->
<g id="node5" class="node">
<title>node_/Transpose</title>
<ellipse fill="none" stroke="black" cx="604" cy="-789.92" rx="62.23" ry="28.99"/>
<text xml:space="preserve" text-anchor="middle" x="604" y="-793.12" font-family="Times,serif" font-size="14.00">/Transpose</text>
<text xml:space="preserve" text-anchor="middle" x="604" y="-776.62" font-family="Times,serif" font-size="14.00">&lt;Transpose&gt;</text>
</g>
<!-- tensor_/Reshape_output_0&#45;&gt;node_/Transpose -->
<g id="edge4" class="edge">
<title>tensor_/Reshape_output_0&#45;&gt;node_/Transpose</title>
<path fill="none" stroke="black" d="M604,-854.63C604,-847.33 604,-838.79 604,-830.37"/>
<polygon fill="black" stroke="black" points="607.5,-830.61 604,-820.61 600.5,-830.61 607.5,-830.61"/>
</g>
<!-- tensor_/Transpose_output_0 -->
<g id="node6" class="node">
<title>tensor_/Transpose_output_0</title>
<polygon fill="none" stroke="black" points="693.38,-724.93 514.62,-724.93 514.62,-683.93 693.38,-683.93 693.38,-724.93"/>
<text xml:space="preserve" text-anchor="middle" x="604" y="-707.63" font-family="Times,serif" font-size="14.00">/Transpose_output_0</text>
<text xml:space="preserve" text-anchor="middle" x="604" y="-691.13" font-family="Times,serif" font-size="14.00">FLOAT, [1, 24, 24, 3, 16, 16]</text>
</g>
<!-- node_/Transpose&#45;&gt;tensor_/Transpose_output_0 -->
<g id="edge5" class="edge">
<title>node_/Transpose&#45;&gt;tensor_/Transpose_output_0</title>
<path fill="none" stroke="black" d="M604,-760.66C604,-752.93 604,-744.51 604,-736.63"/>
<polygon fill="black" stroke="black" points="607.5,-736.75 604,-726.75 600.5,-736.75 607.5,-736.75"/>
</g>
<!-- node_/Reshape_1 -->
<g id="node7" class="node">
<title>node_/Reshape_1</title>
<ellipse fill="none" stroke="black" cx="516" cy="-618.94" rx="55.86" ry="28.99"/>
<text xml:space="preserve" text-anchor="middle" x="516" y="-622.14" font-family="Times,serif" font-size="14.00">/Reshape_1</text>
<text xml:space="preserve" text-anchor="middle" x="516" y="-605.64" font-family="Times,serif" font-size="14.00">&lt;Reshape&gt;</text>
</g>
<!-- tensor_/Transpose_output_0&#45;&gt;node_/Reshape_1 -->
<g id="edge6" class="edge">
<title>tensor_/Transpose_output_0&#45;&gt;node_/Reshape_1</title>
<path fill="none" stroke="black" d="M583.15,-683.64C573.42,-674.42 561.6,-663.2 550.59,-652.76"/>
<polygon fill="black" stroke="black" points="553.15,-650.36 543.49,-646.02 548.33,-655.44 553.15,-650.36"/>
</g>
<!-- tensor_/Reshape_1_output_0 -->
<g id="node9" class="node">
<title>tensor_/Reshape_1_output_0</title>
<polygon fill="none" stroke="black" points="584,-553.95 448,-553.95 448,-512.95 584,-512.95 584,-553.95"/>
<text xml:space="preserve" text-anchor="middle" x="516" y="-536.65" font-family="Times,serif" font-size="14.00">/Reshape_1_output_0</text>
<text xml:space="preserve" text-anchor="middle" x="516" y="-520.15" font-family="Times,serif" font-size="14.00">FLOAT, [1, 576, 768]</text>
</g>
<!-- node_/Reshape_1&#45;&gt;tensor_/Reshape_1_output_0 -->
<g id="edge8" class="edge">
<title>node_/Reshape_1&#45;&gt;tensor_/Reshape_1_output_0</title>
<path fill="none" stroke="black" d="M516,-589.67C516,-581.95 516,-573.53 516,-565.64"/>
<polygon fill="black" stroke="black" points="519.5,-565.77 516,-555.77 512.5,-565.77 519.5,-565.77"/>
</g>
<!-- tensor_/Constant_1_output_0 -->
<g id="node8" class="node">
<title>tensor_/Constant_1_output_0</title>
<path fill="none" stroke="black" d="M485,-724.93C485,-724.93 373,-724.93 373,-724.93 367,-724.93 361,-718.93 361,-712.93 361,-712.93 361,-695.93 361,-695.93 361,-689.93 367,-683.93 373,-683.93 373,-683.93 485,-683.93 485,-683.93 491,-683.93 497,-689.93 497,-695.93 497,-695.93 497,-712.93 497,-712.93 497,-718.93 491,-724.93 485,-724.93"/>
<text xml:space="preserve" text-anchor="middle" x="429" y="-707.63" font-family="Times,serif" font-size="14.00">/Constant_1_output_0</text>
<text xml:space="preserve" text-anchor="middle" x="429" y="-691.13" font-family="Times,serif" font-size="14.00">INT64, [3]</text>
</g>
<!-- tensor_/Constant_1_output_0&#45;&gt;node_/Reshape_1 -->
<g id="edge7" class="edge">
<title>tensor_/Constant_1_output_0&#45;&gt;node_/Reshape_1</title>
<path fill="none" stroke="black" d="M449.62,-683.64C459.23,-674.42 470.92,-663.2 481.8,-652.76"/>
<polygon fill="black" stroke="black" points="484.03,-655.47 488.82,-646.02 479.18,-650.42 484.03,-655.47"/>
</g>
<!-- node_/patch_embedding/MatMul -->
<g id="node10" class="node">
<title>node_/patch_embedding/MatMul</title>
<ellipse fill="none" stroke="black" cx="442" cy="-447.96" rx="117.38" ry="28.99"/>
<text xml:space="preserve" text-anchor="middle" x="442" y="-451.16" font-family="Times,serif" font-size="14.00">/patch_embedding/MatMul</text>
<text xml:space="preserve" text-anchor="middle" x="442" y="-434.66" font-family="Times,serif" font-size="14.00">&lt;MatMul&gt;</text>
</g>
<!-- tensor_/Reshape_1_output_0&#45;&gt;node_/patch_embedding/MatMul -->
<g id="edge9" class="edge">
<title>tensor_/Reshape_1_output_0&#45;&gt;node_/patch_embedding/MatMul</title>
<path fill="none" stroke="black" d="M498.46,-512.66C491.13,-504.39 482.38,-494.51 473.98,-485.03"/>
<polygon fill="black" stroke="black" points="476.67,-482.79 467.41,-477.63 471.43,-487.44 476.67,-482.79"/>
</g>
<!-- tensor_/patch_embedding/MatMul_output_0 -->
<g id="node12" class="node">
<title>tensor_/patch_embedding/MatMul_output_0</title>
<polygon fill="none" stroke="black" points="552.38,-382.97 331.62,-382.97 331.62,-341.97 552.38,-341.97 552.38,-382.97"/>
<text xml:space="preserve" text-anchor="middle" x="442" y="-365.67" font-family="Times,serif" font-size="14.00">/patch_embedding/MatMul_output_0</text>
<text xml:space="preserve" text-anchor="middle" x="442" y="-349.17" font-family="Times,serif" font-size="14.00">FLOAT, [1, 576, 768]</text>
</g>
<!-- node_/patch_embedding/MatMul&#45;&gt;tensor_/patch_embedding/MatMul_output_0 -->
<g id="edge11" class="edge">
<title>node_/patch_embedding/MatMul&#45;&gt;tensor_/patch_embedding/MatMul_output_0</title>
<path fill="none" stroke="black" d="M442,-418.69C442,-410.96 442,-402.54 442,-394.66"/>
<polygon fill="black" stroke="black" points="445.5,-394.79 442,-384.79 438.5,-394.79 445.5,-394.79"/>
</g>
<!-- tensor_onnx\:\:MatMul_62 -->
<g id="node11" class="node">
<title>tensor_onnx\:\:MatMul_62</title>
<path fill="none" stroke="black" d="M417.88,-553.95C417.88,-553.95 320.12,-553.95 320.12,-553.95 314.12,-553.95 308.12,-547.95 308.12,-541.95 308.12,-541.95 308.12,-524.95 308.12,-524.95 308.12,-518.95 314.12,-512.95 320.12,-512.95 320.12,-512.95 417.88,-512.95 417.88,-512.95 423.88,-512.95 429.88,-518.95 429.88,-524.95 429.88,-524.95 429.88,-541.95 429.88,-541.95 429.88,-547.95 423.88,-553.95 417.88,-553.95"/>
<text xml:space="preserve" text-anchor="middle" x="369" y="-536.65" font-family="Times,serif" font-size="14.00">onnx::MatMul_62</text>
<text xml:space="preserve" text-anchor="middle" x="369" y="-520.15" font-family="Times,serif" font-size="14.00">FLOAT, [768, 768]</text>
</g>
<!-- tensor_onnx\:\:MatMul_62&#45;&gt;node_/patch_embedding/MatMul -->
<g id="edge10" class="edge">
<title>tensor_onnx\:\:MatMul_62&#45;&gt;node_/patch_embedding/MatMul</title>
<path fill="none" stroke="black" d="M386.3,-512.66C393.53,-504.39 402.17,-494.51 410.46,-485.03"/>
<polygon fill="black" stroke="black" points="412.98,-487.47 416.92,-477.64 407.71,-482.86 412.98,-487.47"/>
</g>
<!-- node_/patch_embedding/Add -->
<g id="node13" class="node">
<title>node_/patch_embedding/Add</title>
<ellipse fill="none" stroke="black" cx="343" cy="-276.97" rx="101.47" ry="28.99"/>
<text xml:space="preserve" text-anchor="middle" x="343" y="-280.17" font-family="Times,serif" font-size="14.00">/patch_embedding/Add</text>
<text xml:space="preserve" text-anchor="middle" x="343" y="-263.67" font-family="Times,serif" font-size="14.00">&lt;Add&gt;</text>
</g>
<!-- tensor_/patch_embedding/MatMul_output_0&#45;&gt;node_/patch_embedding/Add -->
<g id="edge13" class="edge">
<title>tensor_/patch_embedding/MatMul_output_0&#45;&gt;node_/patch_embedding/Add</title>
<path fill="none" stroke="black" d="M418.29,-341.47C407.79,-332.62 395.15,-321.96 383.25,-311.92"/>
<polygon fill="black" stroke="black" points="385.81,-309.5 375.91,-305.73 381.3,-314.85 385.81,-309.5"/>
</g>
<!-- tensor_/patch_embedding/Add_output_0 -->
<g id="node15" class="node">
<title>tensor_/patch_embedding/Add_output_0</title>
<polygon fill="none" stroke="black" points="442.12,-211.98 243.88,-211.98 243.88,-170.98 442.12,-170.98 442.12,-211.98"/>
<text xml:space="preserve" text-anchor="middle" x="343" y="-194.68" font-family="Times,serif" font-size="14.00">/patch_embedding/Add_output_0</text>
<text xml:space="preserve" text-anchor="middle" x="343" y="-178.18" font-family="Times,serif" font-size="14.00">FLOAT, [1, 576, 768]</text>
</g>
<!-- node_/patch_embedding/Add&#45;&gt;tensor_/patch_embedding/Add_output_0 -->
<g id="edge14" class="edge">
<title>node_/patch_embedding/Add&#45;&gt;tensor_/patch_embedding/Add_output_0</title>
<path fill="none" stroke="black" d="M343,-247.71C343,-239.98 343,-231.56 343,-223.68"/>
<polygon fill="black" stroke="black" points="346.5,-223.8 343,-213.8 339.5,-223.8 346.5,-223.8"/>
</g>
<!-- tensor_patch_embedding.bias -->
<g id="node14" class="node">
<title>tensor_patch_embedding.bias</title>
<path fill="none" stroke="black" d="M301.12,-382.97C301.12,-382.97 186.88,-382.97 186.88,-382.97 180.88,-382.97 174.88,-376.97 174.88,-370.97 174.88,-370.97 174.88,-353.97 174.88,-353.97 174.88,-347.97 180.88,-341.97 186.88,-341.97 186.88,-341.97 301.12,-341.97 301.12,-341.97 307.12,-341.97 313.12,-347.97 313.12,-353.97 313.12,-353.97 313.12,-370.97 313.12,-370.97 313.12,-376.97 307.12,-382.97 301.12,-382.97"/>
<text xml:space="preserve" text-anchor="middle" x="244" y="-365.67" font-family="Times,serif" font-size="14.00">patch_embedding.bias</text>
<text xml:space="preserve" text-anchor="middle" x="244" y="-349.17" font-family="Times,serif" font-size="14.00">FLOAT, [768]</text>
</g>
<!-- tensor_patch_embedding.bias&#45;&gt;node_/patch_embedding/Add -->
<g id="edge12" class="edge">
<title>tensor_patch_embedding.bias&#45;&gt;node_/patch_embedding/Add</title>
<path fill="none" stroke="black" d="M267.71,-341.47C278.21,-332.62 290.85,-321.96 302.75,-311.92"/>
<polygon fill="black" stroke="black" points="304.7,-314.85 310.09,-305.73 300.19,-309.5 304.7,-314.85"/>
</g>
<!-- node_/Add -->
<g id="node16" class="node">
<title>node_/Add</title>
<ellipse fill="none" stroke="black" cx="228" cy="-105.99" rx="39.42" ry="28.99"/>
<text xml:space="preserve" text-anchor="middle" x="228" y="-109.19" font-family="Times,serif" font-size="14.00">/Add</text>
<text xml:space="preserve" text-anchor="middle" x="228" y="-92.69" font-family="Times,serif" font-size="14.00">&lt;Add&gt;</text>
</g>
<!-- tensor_/patch_embedding/Add_output_0&#45;&gt;node_/Add -->
<g id="edge15" class="edge">
<title>tensor_/patch_embedding/Add_output_0&#45;&gt;node_/Add</title>
<path fill="none" stroke="black" d="M315.45,-170.48C300.35,-159.52 281.41,-145.77 265.02,-133.87"/>
<polygon fill="black" stroke="black" points="267.09,-131.05 256.94,-128.01 262.98,-136.71 267.09,-131.05"/>
</g>
<!-- tensor_output -->
<g id="node18" class="node">
<title>tensor_output</title>
<polygon fill="none" stroke="black" points="296,-41 160,-41 160,0 296,0 296,-41"/>
<text xml:space="preserve" text-anchor="middle" x="228" y="-23.7" font-family="Times,serif" font-size="14.00">output</text>
<text xml:space="preserve" text-anchor="middle" x="228" y="-7.2" font-family="Times,serif" font-size="14.00">FLOAT, [1, 576, 768]</text>
</g>
<!-- node_/Add&#45;&gt;tensor_output -->
<g id="edge17" class="edge">
<title>node_/Add&#45;&gt;tensor_output</title>
<path fill="none" stroke="black" d="M228,-76.73C228,-69 228,-60.58 228,-52.7"/>
<polygon fill="black" stroke="black" points="231.5,-52.82 228,-42.82 224.5,-52.82 231.5,-52.82"/>
</g>
<!-- tensor_/position_embedding/Gather_output_0 -->
<g id="node17" class="node">
<title>tensor_/position_embedding/Gather_output_0</title>
<path fill="none" stroke="black" d="M214,-211.98C214,-211.98 12,-211.98 12,-211.98 6,-211.98 0,-205.98 0,-199.98 0,-199.98 0,-182.98 0,-182.98 0,-176.98 6,-170.98 12,-170.98 12,-170.98 214,-170.98 214,-170.98 220,-170.98 226,-176.98 226,-182.98 226,-182.98 226,-199.98 226,-199.98 226,-205.98 220,-211.98 214,-211.98"/>
<text xml:space="preserve" text-anchor="middle" x="113" y="-194.68" font-family="Times,serif" font-size="14.00">/position_embedding/Gather_output_0</text>
<text xml:space="preserve" text-anchor="middle" x="113" y="-178.18" font-family="Times,serif" font-size="14.00">FLOAT, [1, 576, 768]</text>
</g>
<!-- tensor_/position_embedding/Gather_output_0&#45;&gt;node_/Add -->
<g id="edge16" class="edge">
<title>tensor_/position_embedding/Gather_output_0&#45;&gt;node_/Add</title>
<path fill="none" stroke="black" d="M140.55,-170.48C155.65,-159.52 174.59,-145.77 190.98,-133.87"/>
<polygon fill="black" stroke="black" points="193.02,-136.71 199.06,-128.01 188.91,-131.05 193.02,-136.71"/>
</g>
</g>
</svg>
