<?xml version="1.0" encoding="UTF-8" standalone="no"?>
<!DOCTYPE svg PUBLIC "-//W3C//DTD SVG 1.1//EN"
 "http://www.w3.org/Graphics/SVG/1.1/DTD/svg11.dtd">
<!-- Generated by graphviz version 13.1.0 (20250701.0955)
 -->
<!-- Title: onnxcli Pages: 1 -->
<svg width="632pt" height="733pt"
 viewBox="0.00 0.00 632.00 733.00" xmlns="http://www.w3.org/2000/svg" xmlns:xlink="http://www.w3.org/1999/xlink">
<g id="graph0" class="graph" transform="scale(1 1) rotate(0) translate(4 728.93)">
<title>onnxcli</title>
<polygon fill="white" stroke="none" points="-4,4 -4,-728.93 628.12,-728.93 628.12,4 -4,4"/>
<!-- node_/patch_embedding/Conv -->
<g id="node1" class="node">
<title>node_/patch_embedding/Conv</title>
<ellipse fill="none" stroke="black" cx="391" cy="-618.94" rx="105.71" ry="28.99"/>
<text xml:space="preserve" text-anchor="middle" x="391" y="-622.14" font-family="Times,serif" font-size="14.00">/patch_embedding/Conv</text>
<text xml:space="preserve" text-anchor="middle" x="391" y="-605.64" font-family="Times,serif" font-size="14.00">&lt;Conv&gt;</text>
</g>
<!-- tensor_/patch_embedding/Conv_output_0 -->
<g id="node5" class="node">
<title>tensor_/patch_embedding/Conv_output_0</title>
<polygon fill="none" stroke="black" points="493.12,-553.95 288.88,-553.95 288.88,-512.95 493.12,-512.95 493.12,-553.95"/>
<text xml:space="preserve" text-anchor="middle" x="391" y="-536.65" font-family="Times,serif" font-size="14.00">/patch_embedding/Conv_output_0</text>
<text xml:space="preserve" text-anchor="middle" x="391" y="-520.15" font-family="Times,serif" font-size="14.00">FLOAT, [1, 768, 24, 24]</text>
</g>
<!-- node_/patch_embedding/Conv&#45;&gt;tensor_/patch_embedding/Conv_output_0 -->
<g id="edge4" class="edge">
<title>node_/patch_embedding/Conv&#45;&gt;tensor_/patch_embedding/Conv_output_0</title>
<path fill="none" stroke="black" d="M391,-589.67C391,-581.95 391,-573.53 391,-565.64"/>
<polygon fill="black" stroke="black" points="394.5,-565.77 391,-555.77 387.5,-565.77 394.5,-565.77"/>
</g>
<!-- tensor_input -->
<g id="node2" class="node">
<title>tensor_input</title>
<polygon fill="none" stroke="black" points="296.12,-724.93 145.88,-724.93 145.88,-683.93 296.12,-683.93 296.12,-724.93"/>
<text xml:space="preserve" text-anchor="middle" x="221" y="-707.63" font-family="Times,serif" font-size="14.00">input</text>
<text xml:space="preserve" text-anchor="middle" x="221" y="-691.13" font-family="Times,serif" font-size="14.00">FLOAT, [1, 3, 384, 384]</text>
</g>
<!-- tensor_input&#45;&gt;node_/patch_embedding/Conv -->
<g id="edge1" class="edge">
<title>tensor_input&#45;&gt;node_/patch_embedding/Conv</title>
<path fill="none" stroke="black" d="M261.72,-683.43C282.25,-673.35 307.56,-660.92 330.33,-649.74"/>
<polygon fill="black" stroke="black" points="331.79,-652.92 339.22,-645.37 328.7,-646.64 331.79,-652.92"/>
</g>
<!-- tensor_patch_embedding.weight -->
<g id="node3" class="node">
<title>tensor_patch_embedding.weight</title>
<path fill="none" stroke="black" d="M455.62,-724.93C455.62,-724.93 326.38,-724.93 326.38,-724.93 320.38,-724.93 314.38,-718.93 314.38,-712.93 314.38,-712.93 314.38,-695.93 314.38,-695.93 314.38,-689.93 320.38,-683.93 326.38,-683.93 326.38,-683.93 455.62,-683.93 455.62,-683.93 461.62,-683.93 467.62,-689.93 467.62,-695.93 467.62,-695.93 467.62,-712.93 467.62,-712.93 467.62,-718.93 461.62,-724.93 455.62,-724.93"/>
<text xml:space="preserve" text-anchor="middle" x="391" y="-707.63" font-family="Times,serif" font-size="14.00">patch_embedding.weight</text>
<text xml:space="preserve" text-anchor="middle" x="391" y="-691.13" font-family="Times,serif" font-size="14.00">FLOAT, [768, 3, 16, 16]</text>
</g>
<!-- tensor_patch_embedding.weight&#45;&gt;node_/patch_embedding/Conv -->
<g id="edge2" class="edge">
<title>tensor_patch_embedding.weight&#45;&gt;node_/patch_embedding/Conv</title>
<path fill="none" stroke="black" d="M391,-683.64C391,-676.35 391,-667.81 391,-659.39"/>
<polygon fill="black" stroke="black" points="394.5,-659.63 391,-649.63 387.5,-659.63 394.5,-659.63"/>
</g>
<!-- tensor_patch_embedding.bias -->
<g id="node4" class="node">
<title>tensor_patch_embedding.bias</title>
<path fill="none" stroke="black" d="M612.12,-724.93C612.12,-724.93 497.88,-724.93 497.88,-724.93 491.88,-724.93 485.88,-718.93 485.88,-712.93 485.88,-712.93 485.88,-695.93 485.88,-695.93 485.88,-689.93 491.88,-683.93 497.88,-683.93 497.88,-683.93 612.12,-683.93 612.12,-683.93 618.12,-683.93 624.12,-689.93 624.12,-695.93 624.12,-695.93 624.12,-712.93 624.12,-712.93 624.12,-718.93 618.12,-724.93 612.12,-724.93"/>
<text xml:space="preserve" text-anchor="middle" x="555" y="-707.63" font-family="Times,serif" font-size="14.00">patch_embedding.bias</text>
<text xml:space="preserve" text-anchor="middle" x="555" y="-691.13" font-family="Times,serif" font-size="14.00">FLOAT, [768]</text>
</g>
<!-- tensor_patch_embedding.bias&#45;&gt;node_/patch_embedding/Conv -->
<g id="edge3" class="edge">
<title>tensor_patch_embedding.bias&#45;&gt;node_/patch_embedding/Conv</title>
<path fill="none" stroke="black" d="M515.72,-683.43C496.17,-673.48 472.12,-661.24 450.38,-650.17"/>
<polygon fill="black" stroke="black" points="452.09,-647.11 441.59,-645.7 448.92,-653.35 452.09,-647.11"/>
</g>
<!-- node_/Reshape -->
<g id="node6" class="node">
<title>node_/Reshape</title>
<ellipse fill="none" stroke="black" cx="312" cy="-447.96" rx="55.33" ry="28.99"/>
<text xml:space="preserve" text-anchor="middle" x="312" y="-451.16" font-family="Times,serif" font-size="14.00">/Reshape</text>
<text xml:space="preserve" text-anchor="middle" x="312" y="-434.66" font-family="Times,serif" font-size="14.00">&lt;Reshape&gt;</text>
</g>
<!-- tensor_/patch_embedding/Conv_output_0&#45;&gt;node_/Reshape -->
<g id="edge5" class="edge">
<title>tensor_/patch_embedding/Conv_output_0&#45;&gt;node_/Reshape</title>
<path fill="none" stroke="black" d="M372.28,-512.66C363.79,-503.7 353.52,-492.84 343.88,-482.65"/>
<polygon fill="black" stroke="black" points="346.44,-480.26 337.02,-475.4 341.35,-485.07 346.44,-480.26"/>
</g>
<!-- tensor_/Reshape_output_0 -->
<g id="node8" class="node">
<title>tensor_/Reshape_output_0</title>
<polygon fill="none" stroke="black" points="380,-382.97 244,-382.97 244,-341.97 380,-341.97 380,-382.97"/>
<text xml:space="preserve" text-anchor="middle" x="312" y="-365.67" font-family="Times,serif" font-size="14.00">/Reshape_output_0</text>
<text xml:space="preserve" text-anchor="middle" x="312" y="-349.17" font-family="Times,serif" font-size="14.00">FLOAT, [1, 768, 576]</text>
</g>
<!-- node_/Reshape&#45;&gt;tensor_/Reshape_output_0 -->
<g id="edge7" class="edge">
<title>node_/Reshape&#45;&gt;tensor_/Reshape_output_0</title>
<path fill="none" stroke="black" d="M312,-418.69C312,-410.96 312,-402.54 312,-394.66"/>
<polygon fill="black" stroke="black" points="315.5,-394.79 312,-384.79 308.5,-394.79 315.5,-394.79"/>
</g>
<!-- tensor__v_32 -->
<g id="node7" class="node">
<title>tensor__v_32</title>
<path fill="none" stroke="black" d="M258.62,-553.95C258.62,-553.95 207.38,-553.95 207.38,-553.95 201.38,-553.95 195.38,-547.95 195.38,-541.95 195.38,-541.95 195.38,-524.95 195.38,-524.95 195.38,-518.95 201.38,-512.95 207.38,-512.95 207.38,-512.95 258.62,-512.95 258.62,-512.95 264.62,-512.95 270.62,-518.95 270.62,-524.95 270.62,-524.95 270.62,-541.95 270.62,-541.95 270.62,-547.95 264.62,-553.95 258.62,-553.95"/>
<text xml:space="preserve" text-anchor="middle" x="233" y="-536.65" font-family="Times,serif" font-size="14.00">_v_32</text>
<text xml:space="preserve" text-anchor="middle" x="233" y="-520.15" font-family="Times,serif" font-size="14.00">INT64, [3]</text>
</g>
<!-- tensor__v_32&#45;&gt;node_/Reshape -->
<g id="edge6" class="edge">
<title>tensor__v_32&#45;&gt;node_/Reshape</title>
<path fill="none" stroke="black" d="M251.72,-512.66C260.21,-503.7 270.48,-492.84 280.12,-482.65"/>
<polygon fill="black" stroke="black" points="282.65,-485.07 286.98,-475.4 277.56,-480.26 282.65,-485.07"/>
</g>
<!-- node_/Transpose -->
<g id="node9" class="node">
<title>node_/Transpose</title>
<ellipse fill="none" stroke="black" cx="312" cy="-276.97" rx="62.23" ry="28.99"/>
<text xml:space="preserve" text-anchor="middle" x="312" y="-280.17" font-family="Times,serif" font-size="14.00">/Transpose</text>
<text xml:space="preserve" text-anchor="middle" x="312" y="-263.67" font-family="Times,serif" font-size="14.00">&lt;Transpose&gt;</text>
</g>
<!-- tensor_/Reshape_output_0&#45;&gt;node_/Transpose -->
<g id="edge8" class="edge">
<title>tensor_/Reshape_output_0&#45;&gt;node_/Transpose</title>
<path fill="none" stroke="black" d="M312,-341.68C312,-334.39 312,-325.84 312,-317.42"/>
<polygon fill="black" stroke="black" points="315.5,-317.66 312,-307.66 308.5,-317.66 315.5,-317.66"/>
</g>
<!-- tensor_/Transpose_output_0 -->
<g id="node10" class="node">
<title>tensor_/Transpose_output_0</title>
<polygon fill="none" stroke="black" points="380,-211.98 244,-211.98 244,-170.98 380,-170.98 380,-211.98"/>
<text xml:space="preserve" text-anchor="middle" x="312" y="-194.68" font-family="Times,serif" font-size="14.00">/Transpose_output_0</text>
<text xml:space="preserve" text-anchor="middle" x="312" y="-178.18" font-family="Times,serif" font-size="14.00">FLOAT, [1, 576, 768]</text>
</g>
<!-- node_/Transpose&#45;&gt;tensor_/Transpose_output_0 -->
<g id="edge9" class="edge">
<title>node_/Transpose&#45;&gt;tensor_/Transpose_output_0</title>
<path fill="none" stroke="black" d="M312,-247.71C312,-239.98 312,-231.56 312,-223.68"/>
<polygon fill="black" stroke="black" points="315.5,-223.8 312,-213.8 308.5,-223.8 315.5,-223.8"/>
</g>
<!-- node_/Add -->
<g id="node11" class="node">
<title>node_/Add</title>
<ellipse fill="none" stroke="black" cx="212" cy="-105.99" rx="39.42" ry="28.99"/>
<text xml:space="preserve" text-anchor="middle" x="212" y="-109.19" font-family="Times,serif" font-size="14.00">/Add</text>
<text xml:space="preserve" text-anchor="middle" x="212" y="-92.69" font-family="Times,serif" font-size="14.00">&lt;Add&gt;</text>
</g>
<!-- tensor_/Transpose_output_0&#45;&gt;node_/Add -->
<g id="edge10" class="edge">
<title>tensor_/Transpose_output_0&#45;&gt;node_/Add</title>
<path fill="none" stroke="black" d="M288.05,-170.48C275.53,-160.04 260,-147.07 246.24,-135.58"/>
<polygon fill="black" stroke="black" points="248.59,-132.98 238.67,-129.26 244.1,-138.35 248.59,-132.98"/>
</g>
<!-- tensor_output -->
<g id="node13" class="node">
<title>tensor_output</title>
<polygon fill="none" stroke="black" points="280,-41 144,-41 144,0 280,0 280,-41"/>
<text xml:space="preserve" text-anchor="middle" x="212" y="-23.7" font-family="Times,serif" font-size="14.00">output</text>
<text xml:space="preserve" text-anchor="middle" x="212" y="-7.2" font-family="Times,serif" font-size="14.00">FLOAT, [1, 576, 768]</text>
</g>
<!-- node_/Add&#45;&gt;tensor_output -->
<g id="edge12" class="edge">
<title>node_/Add&#45;&gt;tensor_output</title>
<path fill="none" stroke="black" d="M212,-76.73C212,-69 212,-60.58 212,-52.7"/>
<polygon fill="black" stroke="black" points="215.5,-52.82 212,-42.82 208.5,-52.82 215.5,-52.82"/>
</g>
<!-- tensor_/position_embedding/Gather_output_0 -->
<g id="node12" class="node">
<title>tensor_/position_embedding/Gather_output_0</title>
<path fill="none" stroke="black" d="M214,-211.98C214,-211.98 12,-211.98 12,-211.98 6,-211.98 0,-205.98 0,-199.98 0,-199.98 0,-182.98 0,-182.98 0,-176.98 6,-170.98 12,-170.98 12,-170.98 214,-170.98 214,-170.98 220,-170.98 226,-176.98 226,-182.98 226,-182.98 226,-199.98 226,-199.98 226,-205.98 220,-211.98 214,-211.98"/>
<text xml:space="preserve" text-anchor="middle" x="113" y="-194.68" font-family="Times,serif" font-size="14.00">/position_embedding/Gather_output_0</text>
<text xml:space="preserve" text-anchor="middle" x="113" y="-178.18" font-family="Times,serif" font-size="14.00">FLOAT, [1, 576, 768]</text>
</g>
<!-- tensor_/position_embedding/Gather_output_0&#45;&gt;node_/Add -->
<g id="edge11" class="edge">
<title>tensor_/position_embedding/Gather_output_0&#45;&gt;node_/Add</title>
<path fill="none" stroke="black" d="M136.71,-170.48C149.01,-160.12 164.25,-147.26 177.79,-135.84"/>
<polygon fill="black" stroke="black" points="179.85,-138.68 185.24,-129.56 175.34,-133.33 179.85,-138.68"/>
</g>
</g>
</svg>
