<?xml version="1.0" encoding="UTF-8" standalone="no"?>
<!DOCTYPE svg PUBLIC "-//W3C//DTD SVG 1.1//EN"
 "http://www.w3.org/Graphics/SVG/1.1/DTD/svg11.dtd">
<!-- Generated by graphviz version 13.1.0 (20250701.0955)
 -->
<!-- Title: onnxcli Pages: 1 -->
<svg width="585pt" height="562pt"
 viewBox="0.00 0.00 585.00 562.00" xmlns="http://www.w3.org/2000/svg" xmlns:xlink="http://www.w3.org/1999/xlink">
<g id="graph0" class="graph" transform="scale(1 1) rotate(0) translate(4 557.95)">
<title>onnxcli</title>
<polygon fill="white" stroke="none" points="-4,4 -4,-557.95 580.88,-557.95 580.88,4 -4,4"/>
<!-- node_/patch_embedding/MatMul -->
<g id="node1" class="node">
<title>node_/patch_embedding/MatMul</title>
<ellipse fill="none" stroke="black" cx="442" cy="-447.96" rx="117.38" ry="28.99"/>
<text xml:space="preserve" text-anchor="middle" x="442" y="-451.16" font-family="Times,serif" font-size="14.00">/patch_embedding/MatMul</text>
<text xml:space="preserve" text-anchor="middle" x="442" y="-434.66" font-family="Times,serif" font-size="14.00">&lt;MatMul&gt;</text>
</g>
<!-- tensor_/patch_embedding/MatMul_output_0 -->
<g id="node4" class="node">
<title>tensor_/patch_embedding/MatMul_output_0</title>
<polygon fill="none" stroke="black" points="552.38,-382.97 331.62,-382.97 331.62,-341.97 552.38,-341.97 552.38,-382.97"/>
<text xml:space="preserve" text-anchor="middle" x="442" y="-365.67" font-family="Times,serif" font-size="14.00">/patch_embedding/MatMul_output_0</text>
<text xml:space="preserve" text-anchor="middle" x="442" y="-349.17" font-family="Times,serif" font-size="14.00">FLOAT, [1, 576, 768]</text>
</g>
<!-- node_/patch_embedding/MatMul&#45;&gt;tensor_/patch_embedding/MatMul_output_0 -->
<g id="edge3" class="edge">
<title>node_/patch_embedding/MatMul&#45;&gt;tensor_/patch_embedding/MatMul_output_0</title>
<path fill="none" stroke="black" d="M442,-418.69C442,-410.96 442,-402.54 442,-394.66"/>
<polygon fill="black" stroke="black" points="445.5,-394.79 442,-384.79 438.5,-394.79 445.5,-394.79"/>
</g>
<!-- tensor_input -->
<g id="node2" class="node">
<title>tensor_input</title>
<polygon fill="none" stroke="black" points="437,-553.95 301,-553.95 301,-512.95 437,-512.95 437,-553.95"/>
<text xml:space="preserve" text-anchor="middle" x="369" y="-536.65" font-family="Times,serif" font-size="14.00">input</text>
<text xml:space="preserve" text-anchor="middle" x="369" y="-520.15" font-family="Times,serif" font-size="14.00">FLOAT, [1, 576, 768]</text>
</g>
<!-- tensor_input&#45;&gt;node_/patch_embedding/MatMul -->
<g id="edge1" class="edge">
<title>tensor_input&#45;&gt;node_/patch_embedding/MatMul</title>
<path fill="none" stroke="black" d="M386.3,-512.66C393.53,-504.39 402.17,-494.51 410.46,-485.03"/>
<polygon fill="black" stroke="black" points="412.98,-487.47 416.92,-477.64 407.71,-482.86 412.98,-487.47"/>
</g>
<!-- tensor_onnx\:\:MatMul_23 -->
<g id="node3" class="node">
<title>tensor_onnx\:\:MatMul_23</title>
<path fill="none" stroke="black" d="M564.88,-553.95C564.88,-553.95 467.12,-553.95 467.12,-553.95 461.12,-553.95 455.12,-547.95 455.12,-541.95 455.12,-541.95 455.12,-524.95 455.12,-524.95 455.12,-518.95 461.12,-512.95 467.12,-512.95 467.12,-512.95 564.88,-512.95 564.88,-512.95 570.88,-512.95 576.88,-518.95 576.88,-524.95 576.88,-524.95 576.88,-541.95 576.88,-541.95 576.88,-547.95 570.88,-553.95 564.88,-553.95"/>
<text xml:space="preserve" text-anchor="middle" x="516" y="-536.65" font-family="Times,serif" font-size="14.00">onnx::MatMul_23</text>
<text xml:space="preserve" text-anchor="middle" x="516" y="-520.15" font-family="Times,serif" font-size="14.00">FLOAT, [768, 768]</text>
</g>
<!-- tensor_onnx\:\:MatMul_23&#45;&gt;node_/patch_embedding/MatMul -->
<g id="edge2" class="edge">
<title>tensor_onnx\:\:MatMul_23&#45;&gt;node_/patch_embedding/MatMul</title>
<path fill="none" stroke="black" d="M498.46,-512.66C491.13,-504.39 482.38,-494.51 473.98,-485.03"/>
<polygon fill="black" stroke="black" points="476.67,-482.79 467.41,-477.63 471.43,-487.44 476.67,-482.79"/>
</g>
<!-- node_/patch_embedding/Add -->
<g id="node5" class="node">
<title>node_/patch_embedding/Add</title>
<ellipse fill="none" stroke="black" cx="343" cy="-276.97" rx="101.47" ry="28.99"/>
<text xml:space="preserve" text-anchor="middle" x="343" y="-280.17" font-family="Times,serif" font-size="14.00">/patch_embedding/Add</text>
<text xml:space="preserve" text-anchor="middle" x="343" y="-263.67" font-family="Times,serif" font-size="14.00">&lt;Add&gt;</text>
</g>
<!-- tensor_/patch_embedding/MatMul_output_0&#45;&gt;node_/patch_embedding/Add -->
<g id="edge5" class="edge">
<title>tensor_/patch_embedding/MatMul_output_0&#45;&gt;node_/patch_embedding/Add</title>
<path fill="none" stroke="black" d="M418.29,-341.47C407.79,-332.62 395.15,-321.96 383.25,-311.92"/>
<polygon fill="black" stroke="black" points="385.81,-309.5 375.91,-305.73 381.3,-314.85 385.81,-309.5"/>
</g>
<!-- tensor_/patch_embedding/Add_output_0 -->
<g id="node7" class="node">
<title>tensor_/patch_embedding/Add_output_0</title>
<polygon fill="none" stroke="black" points="442.12,-211.98 243.88,-211.98 243.88,-170.98 442.12,-170.98 442.12,-211.98"/>
<text xml:space="preserve" text-anchor="middle" x="343" y="-194.68" font-family="Times,serif" font-size="14.00">/patch_embedding/Add_output_0</text>
<text xml:space="preserve" text-anchor="middle" x="343" y="-178.18" font-family="Times,serif" font-size="14.00">FLOAT, [1, 576, 768]</text>
</g>
<!-- node_/patch_embedding/Add&#45;&gt;tensor_/patch_embedding/Add_output_0 -->
<g id="edge6" class="edge">
<title>node_/patch_embedding/Add&#45;&gt;tensor_/patch_embedding/Add_output_0</title>
<path fill="none" stroke="black" d="M343,-247.71C343,-239.98 343,-231.56 343,-223.68"/>
<polygon fill="black" stroke="black" points="346.5,-223.8 343,-213.8 339.5,-223.8 346.5,-223.8"/>
</g>
<!-- tensor_patch_embedding.bias -->
<g id="node6" class="node">
<title>tensor_patch_embedding.bias</title>
<path fill="none" stroke="black" d="M301.12,-382.97C301.12,-382.97 186.88,-382.97 186.88,-382.97 180.88,-382.97 174.88,-376.97 174.88,-370.97 174.88,-370.97 174.88,-353.97 174.88,-353.97 174.88,-347.97 180.88,-341.97 186.88,-341.97 186.88,-341.97 301.12,-341.97 301.12,-341.97 307.12,-341.97 313.12,-347.97 313.12,-353.97 313.12,-353.97 313.12,-370.97 313.12,-370.97 313.12,-376.97 307.12,-382.97 301.12,-382.97"/>
<text xml:space="preserve" text-anchor="middle" x="244" y="-365.67" font-family="Times,serif" font-size="14.00">patch_embedding.bias</text>
<text xml:space="preserve" text-anchor="middle" x="244" y="-349.17" font-family="Times,serif" font-size="14.00">FLOAT, [768]</text>
</g>
<!-- tensor_patch_embedding.bias&#45;&gt;node_/patch_embedding/Add -->
<g id="edge4" class="edge">
<title>tensor_patch_embedding.bias&#45;&gt;node_/patch_embedding/Add</title>
<path fill="none" stroke="black" d="M267.71,-341.47C278.21,-332.62 290.85,-321.96 302.75,-311.92"/>
<polygon fill="black" stroke="black" points="304.7,-314.85 310.09,-305.73 300.19,-309.5 304.7,-314.85"/>
</g>
<!-- node_/Add -->
<g id="node8" class="node">
<title>node_/Add</title>
<ellipse fill="none" stroke="black" cx="228" cy="-105.99" rx="39.42" ry="28.99"/>
<text xml:space="preserve" text-anchor="middle" x="228" y="-109.19" font-family="Times,serif" font-size="14.00">/Add</text>
<text xml:space="preserve" text-anchor="middle" x="228" y="-92.69" font-family="Times,serif" font-size="14.00">&lt;Add&gt;</text>
</g>
<!-- tensor_/patch_embedding/Add_output_0&#45;&gt;node_/Add -->
<g id="edge7" class="edge">
<title>tensor_/patch_embedding/Add_output_0&#45;&gt;node_/Add</title>
<path fill="none" stroke="black" d="M315.45,-170.48C300.35,-159.52 281.41,-145.77 265.02,-133.87"/>
<polygon fill="black" stroke="black" points="267.09,-131.05 256.94,-128.01 262.98,-136.71 267.09,-131.05"/>
</g>
<!-- tensor_output -->
<g id="node10" class="node">
<title>tensor_output</title>
<polygon fill="none" stroke="black" points="296,-41 160,-41 160,0 296,0 296,-41"/>
<text xml:space="preserve" text-anchor="middle" x="228" y="-23.7" font-family="Times,serif" font-size="14.00">output</text>
<text xml:space="preserve" text-anchor="middle" x="228" y="-7.2" font-family="Times,serif" font-size="14.00">FLOAT, [1, 576, 768]</text>
</g>
<!-- node_/Add&#45;&gt;tensor_output -->
<g id="edge9" class="edge">
<title>node_/Add&#45;&gt;tensor_output</title>
<path fill="none" stroke="black" d="M228,-76.73C228,-69 228,-60.58 228,-52.7"/>
<polygon fill="black" stroke="black" points="231.5,-52.82 228,-42.82 224.5,-52.82 231.5,-52.82"/>
</g>
<!-- tensor_/position_embedding/Gather_output_0 -->
<g id="node9" class="node">
<title>tensor_/position_embedding/Gather_output_0</title>
<path fill="none" stroke="black" d="M214,-211.98C214,-211.98 12,-211.98 12,-211.98 6,-211.98 0,-205.98 0,-199.98 0,-199.98 0,-182.98 0,-182.98 0,-176.98 6,-170.98 12,-170.98 12,-170.98 214,-170.98 214,-170.98 220,-170.98 226,-176.98 226,-182.98 226,-182.98 226,-199.98 226,-199.98 226,-205.98 220,-211.98 214,-211.98"/>
<text xml:space="preserve" text-anchor="middle" x="113" y="-194.68" font-family="Times,serif" font-size="14.00">/position_embedding/Gather_output_0</text>
<text xml:space="preserve" text-anchor="middle" x="113" y="-178.18" font-family="Times,serif" font-size="14.00">FLOAT, [1, 576, 768]</text>
</g>
<!-- tensor_/position_embedding/Gather_output_0&#45;&gt;node_/Add -->
<g id="edge8" class="edge">
<title>tensor_/position_embedding/Gather_output_0&#45;&gt;node_/Add</title>
<path fill="none" stroke="black" d="M140.55,-170.48C155.65,-159.52 174.59,-145.77 190.98,-133.87"/>
<polygon fill="black" stroke="black" points="193.02,-136.71 199.06,-128.01 188.91,-131.05 193.02,-136.71"/>
</g>
</g>
</svg>
